<svg xmlns="http://www.w3.org/2000/svg" xmlns:xlink="http://www.w3.org/1999/xlink" width="500" zoomAndPan="magnify" viewBox="0 0 375 374.999991" height="500" preserveAspectRatio="xMidYMid meet" version="1.0"><defs><clipPath id="82cd60f129"><path d="M 63.34375 50.816406 L 140.628906 50.816406 L 140.628906 128.101562 L 63.34375 128.101562 Z M 63.34375 50.816406 " clip-rule="nonzero"/></clipPath><clipPath id="134e2fa2f3"><path d="M 101.988281 50.816406 C 80.644531 50.816406 63.34375 68.117188 63.34375 89.457031 C 63.34375 110.800781 80.644531 128.101562 101.988281 128.101562 C 123.328125 128.101562 140.628906 110.800781 140.628906 89.457031 C 140.628906 68.117188 123.328125 50.816406 101.988281 50.816406 Z M 101.988281 50.816406 " clip-rule="nonzero"/></clipPath><clipPath id="7b34d29773"><path d="M 0.34375 0.816406 L 77.628906 0.816406 L 77.628906 78.101562 L 0.34375 78.101562 Z M 0.34375 0.816406 " clip-rule="nonzero"/></clipPath><clipPath id="7990e05dc5"><path d="M 38.988281 0.816406 C 17.644531 0.816406 0.34375 18.117188 0.34375 39.457031 C 0.34375 60.800781 17.644531 78.101562 38.988281 78.101562 C 60.328125 78.101562 77.628906 60.800781 77.628906 39.457031 C 77.628906 18.117188 60.328125 0.816406 38.988281 0.816406 Z M 38.988281 0.816406 " clip-rule="nonzero"/></clipPath><clipPath id="f4c6ea8464"><rect x="0" width="78" y="0" height="79"/></clipPath><clipPath id="50bae55a5d"><path d="M 62.878906 213.390625 L 140.878906 213.390625 L 140.878906 341.640625 L 62.878906 341.640625 Z M 62.878906 213.390625 " clip-rule="nonzero"/></clipPath></defs><path stroke-linecap="round" transform="matrix(0.53033, 0.53033, -0.53033, 0.53033, 190.216252, 33.364971)" fill="none" stroke-linejoin="miter" d="M 23.000148 23.002804 L 261.092592 22.999121 " stroke="#ffffff" stroke-width="46" stroke-opacity="1" stroke-miterlimit="4"/><path stroke-linecap="round" transform="matrix(0.544206, -0.516081, 0.516081, 0.544206, 161.023823, 309.026142)" fill="none" stroke-linejoin="miter" d="M 23.000793 22.998636 L 263.269671 23.002465 " stroke="#ffffff" stroke-width="46" stroke-opacity="1" stroke-miterlimit="4"/><g clip-path="url(#82cd60f129)"><g clip-path="url(#134e2fa2f3)"><g transform="matrix(1, 0, 0, 1, 63, 50)"><g clip-path="url(#f4c6ea8464)"><g clip-path="url(#7b34d29773)"><g clip-path="url(#7990e05dc5)"><path fill="#ffffff" d="M 0.34375 0.816406 L 77.628906 0.816406 L 77.628906 78.101562 L 0.34375 78.101562 Z M 0.34375 0.816406 " fill-opacity="1" fill-rule="nonzero"/></g></g></g></g></g></g><g clip-path="url(#50bae55a5d)"><path fill="#ffffff" d="M 140.621094 249.3125 C 139.617188 290.300781 114.441406 322.570312 78.863281 341.582031 C 94.445312 318.125 103.289062 300.171875 101.75 285.183594 C 80.285156 285.183594 62.878906 269.121094 62.878906 249.3125 C 62.878906 229.5 80.285156 213.445312 101.75 213.445312 C 123.21875 213.445312 140.621094 229.503906 140.621094 249.3125 Z M 140.621094 249.3125 " fill-opacity="1" fill-rule="nonzero"/></g></svg>